<?xml version="1.0" encoding="UTF-8"?>
<svg width="29px" height="30px" viewBox="0 0 29 30" version="1.1" xmlns="http://www.w3.org/2000/svg" xmlns:xlink="http://www.w3.org/1999/xlink">
    <!-- Generator: Sketch 58 (84663) - https://sketch.com -->
    <title>Snowman</title>
    <desc>Created with Sketch.</desc>
    <g id="Symbols" stroke="none" stroke-width="1" fill="none" fill-rule="evenodd">
        <g id="Icon/Delivery/Christmas-Copy-2" transform="translate(-1.000000, 0.000000)">
            <g id="Snowman" transform="translate(1.000000, 0.000000)">
                <g id="Group">
                    <path d="M14,0 C15.3807119,0 16.5,1.11928813 16.5,2.5 C16.5,3.24630478 16.1729846,3.91623102 15.6544284,4.37430404 L18.5,9.97521186 C18.3554391,10.0155448 18.2108755,10.0539249 18.0663094,10.0903523 C18.6539707,10.909451 19,11.9143157 19,13 C19,14.5203595 18.3214242,15.8822292 17.2506167,16.7992648 C18.7506809,17.5867856 19.9299596,18.9032494 20.5407426,20.5009354 L24.0083852,20.6104479 C24.0364958,20.3546784 24.1899871,20.0601701 24.4688591,19.7269231 C24.8871671,19.2270525 25.666547,18.8139131 26.3879006,18.8139131 C27.1092542,18.8139131 27.4470526,18.7468515 27.6046512,19 C27.7622497,19.2531485 27.7108027,19.4634036 27.6046512,19.6167671 C27.4984996,19.7701306 27.4052191,19.7996555 27.0511645,19.7996555 C26.6971099,19.7996555 26.3705726,19.7342449 25.8188637,19.9671164 C25.4510577,20.1223641 25.1926327,20.3490038 25.0435887,20.6470356 L27.6046512,20.6998368 C27.8394515,20.7145489 27.9880149,20.8015874 28.0503412,20.9609524 C28.1438308,21.2 28.0941679,21.4335758 27.9507677,21.5649182 C27.8073674,21.6962606 27.7021779,21.6950493 27.4052191,21.6950493 C27.2072466,21.6950493 26.4322259,21.6752557 25.080157,21.6356686 C25.2410995,21.9123195 25.487335,22.1153368 25.8188637,22.2447205 C26.3161567,22.438796 26.7367965,22.4082031 27.0259094,22.4082031 C27.3150224,22.4082031 27.4699658,22.4082031 27.6046512,22.5988159 C27.7393365,22.7894287 27.6938452,23.0969481 27.6046512,23.2272644 C27.5154571,23.3575807 27.3203374,23.4074833 27.0511645,23.4074833 C26.7819916,23.4074833 25.9093229,23.4828245 25.080157,23 C24.5273797,22.678117 24.1701225,22.2233399 24.0083852,21.6356686 L20.8450182,21.5282426 C20.9465549,22.0027765 21,22.4951468 21,23 C21,26.8659932 17.8659932,30 14,30 C10.1340068,30 7,26.8659932 7,23 C7,22.4298047 7.06817497,21.8755326 7.19681828,21.3448902 L4.34883721,20.3665927 C3.90950213,20.8725638 3.48425802,21.1783651 3.07310486,21.2839966 C2.45637512,21.4424438 1.82540894,21.3930664 1.32554626,21.2574921 C0.825683594,21.1219177 0.906082153,20.7331165 0.960021973,20.5731812 C1.01396179,20.4132458 1.25724792,20.2441711 1.44519043,20.2718201 C1.63313293,20.299469 2.16934204,20.4815223 2.68450928,20.3665927 C3.19967651,20.2516632 3.50408936,19.8351593 3.61882019,19.5952454 C3.73355103,19.3553314 3.72261047,18.8889189 3.61882019,18.6552582 C3.51502991,18.4215975 3.15336609,17.9931946 2.65409851,17.8952789 C2.15483093,17.7973633 1.87783813,17.7823029 1.75843811,17.5094604 C1.63903809,17.236618 1.80235291,16.984436 1.92463684,16.8992615 C2.04692078,16.8140869 2.18684387,16.7947693 2.45605469,16.8470154 C2.7252655,16.8992615 3.51676941,17.0072327 3.98684692,17.5094604 C4.45692444,18.0116882 4.79766846,18.596756 4.68337342,19.4462469 L7.49892919,20.3995874 C8.12044795,18.8471874 9.28189958,17.5692599 10.7510393,16.7980499 C9.67909314,15.8832672 9,14.5209389 9,13 C9,11.9138806 9.34630672,10.9086455 9.93452456,10.0886902 L9.5,9.97521186 L12.3435704,4.37253437 C11.8261742,3.91450651 11.5,3.24534429 11.5,2.5 C11.5,1.11928813 12.6192881,0 14,0 Z M14,16.75 C10.5482203,16.75 7.75,19.5482203 7.75,23 C7.75,26.4517797 10.5482203,29.25 14,29.25 C17.4517797,29.25 20.25,26.4517797 20.25,23 C20.25,19.5482203 17.4517797,16.75 14,16.75 Z M10.7442462,10.2702239 L10.7358292,10.2781287 C10.1203527,11.0154327 9.75,11.9644661 9.75,13 C9.75,14.4219433 10.4483151,15.6807864 11.5207113,16.4522953 C12.2917391,16.1597318 13.1272159,16 14,16 C14.7636861,16 15.4988087,16.1222947 16.1868523,16.3483684 L16.478,16.451 L16.6139476,16.3513275 C17.6097719,15.5735061 18.25,14.3615197 18.25,13 C18.25,11.9616094 17.8776012,11.0101973 17.2590716,10.2720317 C16.1788564,10.4912349 15.099724,10.6 14.0204474,10.6 C12.9354297,10.6 11.8433626,10.4900746 10.7442462,10.2702239 Z M14,0.75 C13.0335017,0.75 12.25,1.53350169 12.25,2.5 C12.25,3.46649831 13.0335017,4.25 14,4.25 C14.9664983,4.25 15.75,3.46649831 15.75,2.5 C15.75,1.53350169 14.9664983,0.75 14,0.75 Z" id="Combined-Shape" fill="#323232"></path>
                    <path d="M14,4.95041238 C13.6389775,4.95041238 13.2837588,4.86506681 12.9343439,4.69437567 L10.549798,9.48942548 C11.6167422,9.72980849 12.7724894,9.85 14.0170395,9.85 C15.2615897,9.85 16.4236645,9.72980849 17.503264,9.48942548 L15.1203211,4.69437567 C14.7344629,4.86506681 14.3610225,4.95041238 14,4.95041238 Z" id="Path-2" fill="#E02020"></path>
                </g>
            </g>
        </g>
    </g>
</svg>
