<svg xmlns="http://www.w3.org/2000/svg" width="603" height="62" viewBox="0 0 603 62">
  <g fill="#FFF" fill-rule="evenodd" transform="translate(0 -.5)">
    <path d="M545.357556,1.03547698 C545.73413,1.13414878 548.259207,1.53969633 548.985028,2.15163593 C549.710849,2.76357552 550.318411,4.41570874 549.825471,6.2221042 C549.332532,8.02849965 548.797311,10.0599013 548.107926,12.4199635 C547.418541,14.7800257 546.066923,19.1443972 545.282016,21.6788351 C544.497108,24.2132729 542.567857,30.9253227 542.001044,32.7131213 C541.434232,34.5009198 540.022609,39.6287108 539.399592,42.1438068 C538.776574,44.6589027 538.62466,45.5961582 538.123946,48.3648067 C537.623231,51.1334552 538.51284,52.7408147 540.572775,52.9936924 C542.63271,53.2465702 544.202872,51.0612063 545.357556,49.7130065 C546.512239,48.3648067 549.120004,45.0625259 551.450392,41.7546334 C553.78078,38.446741 557.542044,32.9225495 560.086296,28.9662542 C562.630548,25.0099589 564.773009,21.463499 566.180613,18.8492359 C566.68735,17.9081012 567.087932,17.1650771 567.423085,16.5555228 L567.737935,15.9880644 C568.165574,15.2257491 568.485021,14.6969519 568.819011,14.2068635 C569.461299,13.2643859 570.533499,11.9582205 571.932858,12.2808721 C573.332217,12.6035237 573.798549,14.2554798 573.798549,16.6073805 L573.798549,28.602189 C573.798549,29.0767012 573.77545,31.670709 573.7639,34.3601659 L573.761171,35.0625977 C573.759557,35.5305546 573.758384,35.9960751 573.757834,36.4485123 L573.757723,37.4399266 C573.759424,38.9338095 573.770428,40.1696063 573.798549,40.6908378 C573.890949,42.4034555 573.954035,46.4632939 574.26361,48.3648067 C574.573186,50.2663195 575.210413,53.3213677 577.322367,53.9571828 C579.434321,54.5929979 581.350555,52.9936924 583.010663,51.5181093 C584.670772,50.0425262 585.952195,48.1655791 588.411636,44.0938016 C590.871077,40.022024 592.66439,35.6118218 593.500802,33.5687633 C594.337214,31.5257048 595.919967,27.3976786 596.806247,21.6725821 C597.692527,15.9474855 597.842229,13.1115059 597.137981,10.0737032 C596.433733,7.03590037 594.933856,5.16939033 594.455905,4.86439761 C593.977953,4.55940488 594.059458,4.23890485 594.455905,3.9385359 C594.731694,3.72958359 595.761846,3.88814938 596.89393,4.05849086 L597.321965,4.1222261 C597.680519,4.17464076 598.041063,4.22386284 598.383686,4.25903593 C599.959752,4.42083216 601.453535,4.97971511 601.922153,5.75227595 C603.017885,7.5586945 603.337733,8.6297112 602.604574,15.9867059 C601.871415,23.3437005 600.587702,27.2123001 599.257766,31.3708579 C597.927829,35.5294156 596.02952,39.9894803 593.900429,44.0938016 C591.771338,48.1981228 589.432124,51.5181093 588.411636,52.9936924 C587.391148,54.4692755 585.52793,56.7484207 584.140512,58.0619283 C582.753094,59.3754359 580.816742,61.1788186 578.545618,61.7336228 C576.274495,62.288427 574.426842,61.9151733 572.9357,61.1788186 C571.444558,60.4424639 570.444003,58.7406036 569.855134,57.4420944 C569.266264,56.1435851 568.362671,53.2728167 568.084538,51.5181093 C567.815096,49.8182365 567.551288,44.2535145 567.535063,40.9984287 L567.534274,30.5257487 L567.534274,30.5257487 C567.534274,26.5294199 566.202742,25.9587201 563.891545,29.6689829 C562.735947,31.5241142 561.840256,32.9280246 560.960296,34.280118 L560.432255,35.0883513 C559.725507,36.1662255 558.997572,37.2620607 558.123432,38.5803517 L557.767271,39.1163454 C555.681336,42.2491099 553.485382,45.4382133 553.059177,46.005276 C552.608618,46.6047422 548.73041,52.1445314 548.045405,52.9936924 C547.3604,53.8428534 546.072082,56.0042059 543.246172,58.6319893 C540.420261,61.2597728 538.214309,62.1562223 535.609122,61.7488796 C533.003935,61.3415369 531.773332,59.8222777 531.110757,58.6319893 C530.448183,57.4417009 530.218139,54.5004769 530.448183,52.2385083 C530.678226,49.9765396 531.180494,48.0179584 531.529507,46.4043854 C531.87852,44.7908124 532.371929,43.5828018 533.003935,41.4135771 C533.635941,39.2443524 534.731988,35.6160958 535.609122,32.7131213 C536.486256,29.8101467 539.203485,20.8961722 540.572775,16.3467098 C540.751378,15.7533017 540.933467,15.1395844 541.115682,14.5191652 L541.297815,13.8970161 L541.297815,13.8970161 L541.479284,13.2734229 L541.479284,13.2734229 L541.659344,12.6514095 C542.674275,9.13685478 543.585324,5.84404239 543.780967,5.2490004 C544.04566,4.44394358 544.743754,1.84198581 544.862368,1.43873139 C544.980981,1.03547698 544.980981,0.936805186 545.357556,1.03547698 Z M519.114835,1.72658829 C520.167202,2.38058466 522.85328,4.0739177 525.134673,6.41849617 C527.416067,8.76307464 528.509642,10.3365009 529.712681,12.617948 C530.91572,14.8993951 531.319116,17.7496022 531.444005,19.4163079 C531.568894,21.0830136 531.462319,25.4452 530.865673,28.0051853 C530.269027,30.5651706 528.229329,37.2783744 526.641266,40.9020562 C526.542012,41.1285363 526.443658,41.3546923 526.345547,41.5809067 L526.051282,42.2601071 C524.675287,45.4340951 523.21772,48.6944738 519.872072,53.0906601 C516.048473,58.114873 513.200176,59.6450073 511.744561,60.4763432 C510.288946,61.3076791 508.012039,61.9874814 504.738805,61.7336228 C501.465571,61.4797642 499.427681,59.98372 498.372157,58.9466111 C498.029911,58.6103364 497.603319,58.0420683 497.160813,57.284379 C495.354483,58.6724736 494.53579,59.5409173 491.935921,60.5287073 C489.019531,61.6367556 487.671943,61.7269723 485.738471,61.7333408 L484.981747,61.7336228 L484.981747,61.7336228 C482.603936,61.7336228 479.476416,61.0559646 477.09668,58.9815883 C474.716945,56.9072121 473.961399,54.3337489 473.71872,52.7631288 C473.47604,51.1925087 473.47604,49.3294058 473.88997,45.9329546 C474.303899,42.5365034 474.910296,39.7613555 475.852843,35.5282358 C476.79539,31.2951161 477.05376,30.2410209 477.831158,27.0762824 C478.608557,23.9115439 478.93681,22.7215954 479.278637,20.7283482 C479.620465,18.7351011 479.620465,17.9700265 478.54632,17.5206204 C477.472176,17.0712142 476.612659,17.7338138 475.852843,18.4700163 C475.326816,18.979695 474.284363,20.3761623 473.195304,21.8719608 L472.831203,22.373159 C472.466664,22.8758759 472.102748,23.3799078 471.756854,23.8560897 C470.257982,25.9195448 468.425357,28.6187346 466.663171,31.121178 C464.900986,33.6236214 463.084684,36.1514728 459.895406,40.6942456 C456.706127,45.2370184 453.323115,50.0999732 450.72139,53.8284718 C448.119665,57.5569705 445.902584,60.6639953 445.524506,61.2890005 C445.146429,61.9140056 445.092983,61.8758031 444.304153,61.2890005 C443.515323,60.7021978 443.164936,60.1127197 442.890783,59.3744566 C442.61663,58.6361936 442.61663,57.6691268 442.890783,56.7264017 C443.164936,55.7836765 444.307042,52.3304991 444.828889,50.8891572 C445.350735,49.4478153 447.140439,43.8795255 448.163762,40.6942456 C449.187084,37.5089657 449.519639,36.3377161 450.155211,34.3100018 C450.790782,32.2822875 451.444246,30.4304409 452.304431,27.4839459 C452.678425,26.2028611 452.910147,25.3650882 453.12231,24.5636681 L453.248242,24.0839227 C453.478414,23.2004495 453.714615,22.262479 454.120173,20.7283482 C454.369581,19.7848989 454.623927,18.7696374 454.879963,17.7388582 L455.341952,15.8788561 C455.804363,14.026414 456.265937,12.2331305 456.707733,10.8273142 C457.542237,8.17188339 458.061285,6.39105407 458.177823,5.95682592 C458.294361,5.52259777 458.294361,5.52259777 458.720383,5.66701945 C459.146406,5.81144114 460.976593,6.10610857 461.382074,6.84976188 C461.99375,7.97157893 461.99375,9.24093379 461.382074,11.7308881 C460.770397,14.2208424 460.03074,19.2147344 459.300273,22.707824 C458.569806,26.2009135 457.777183,29.5911261 457.271825,32.2822875 C456.766467,34.9734488 456.133298,36.7732912 458.177823,33.9668341 C458.79118,33.124897 459.194897,32.567371 459.56944,32.0536352 L459.71813,31.849906 C460.532069,30.7359665 461.321274,29.6786906 464.007368,26.1159462 C468.077207,20.7178487 470.875145,16.1495576 472.805626,13.5913959 C474.736106,11.0332341 476.668316,8.19188644 478.54632,6.84976188 C480.424325,5.50763732 482.535972,5.01461017 484.981747,6.20122925 C487.427522,7.38784832 488.461429,9.84396079 487.732526,12.7690494 C487.24659,14.7191084 486.329664,18.1907888 484.981747,23.1840905 C483.174311,29.7835253 481.879014,34.8768238 481.095857,38.4639862 C479.921121,43.8447298 479.512885,46.0835121 479.278637,48.7041451 C479.044389,51.3247781 479.566168,54.4187908 482.031251,56.0756171 C484.496334,57.7324435 488.473454,57.1973381 490.738563,56.4453143 C492.616101,55.8219653 494.232641,55.1841788 495.765378,54.2409066 C495.362883,53.1131881 495.019947,51.8400283 494.806251,50.4641603 C494.153678,46.2625893 494.655878,42.11272 495.164565,38.9088795 C495.673252,35.7050389 497.392988,30.6863833 498.372157,28.396768 C499.351325,26.1071527 502.045144,21.5223449 503.500684,19.4163079 C504.956223,17.3102709 507.244277,14.5402486 509.481233,12.617948 C510.294671,11.9189296 511.53357,11.0353749 512.795852,10.1817273 L513.269518,9.86343019 C515.320015,8.49384752 517.299537,7.27402149 517.482759,7.12413224 C517.792825,6.87047351 517.764893,6.92315585 517.482759,6.74223255 C517.283605,6.61452199 516.589338,6.15367233 515.840235,5.65650997 L515.463153,5.40627692 C515.337294,5.32277336 515.211951,5.2396353 515.089161,5.15823694 L514.907145,5.03761597 C513.889465,4.36343764 513.586376,4.14625534 513.514176,3.64329686 C513.441977,3.14033839 514.290645,2.52848259 514.907145,2.00339329 C515.523646,1.478304 515.959795,1.182323 516.532409,1.07259191 C517.105023,0.96286083 518.062469,1.07259191 519.114835,1.72658829 Z M520.694792,11.5365534 C519.976991,11.9369717 519.067498,12.617948 517.482759,13.8469909 C515.898019,15.0760339 514.692025,16.2294859 513.373722,17.7496022 C512.055419,19.2697186 509.686923,22.0924362 507.75615,25.4221807 C505.825376,28.7519252 504.151727,31.3639988 502.610876,36.6535953 C501.070026,41.9431918 500.66764,46.7725179 500.763696,49.1627502 C500.777049,49.4950187 500.799643,49.8318548 500.833336,50.1681505 C500.862508,50.1257085 500.88741,50.0853789 500.908382,50.0469071 C501.325187,49.2822816 501.358284,49.4599936 501.58749,48.7041451 C501.816695,47.9482967 501.859621,47.70398 502.353402,47.135278 C502.847182,46.566576 503.252079,46.5768633 503.97101,46.5768633 C504.689942,46.5768633 505.984845,46.74087 506.444886,47.135278 C506.904928,47.5296859 506.643032,48.337784 506.444886,48.7041451 C506.24674,49.0705063 505.911569,49.6958829 504.681646,51.0059976 C503.932911,51.8035508 503.102538,52.7120396 501.852193,53.7858902 C502.190634,54.3647155 502.625849,54.836418 503.178518,55.1409964 C504.923041,56.1024107 507.763276,55.2757468 510.288946,53.0906601 C512.814615,50.9055734 515.572765,46.2255405 517.482759,42.7656599 C519.392752,39.3057793 520.675192,35.8868346 522.158897,31.5886901 C523.642603,27.2905455 524.262165,24.2805417 524.565169,22.248635 C524.868172,20.2167282 525.084942,17.7663954 524.565169,15.4525031 C524.045396,13.1386108 522.770128,11.9787472 522.158897,11.5365534 C521.547667,11.0943596 521.412593,11.1361351 520.694792,11.5365534 Z"/>
    <path fill-rule="nonzero" d="M150.601476,2 C152.594096,2 154.697417,2.11152416 157.464945,2.55762082 L157.464945,2.55762082 L158.01845,2.66914498 C158.461255,2.78066914 158.682657,2.78066914 158.904059,2.78066914 C160.453875,3.00371747 160.785978,3.78438662 160.785978,5.79182156 L160.785978,5.79182156 L160.785978,6.9070632 C160.785978,7.57620818 160.896679,9.13754647 161.00738,10.5873606 C161.00738,11.8141264 161.118081,12.8178439 161.118081,13.1524164 C161.118081,13.8215613 160.675277,14.267658 160.01107,14.267658 C159.236162,14.267658 159.01476,13.8215613 158.793358,12.929368 C158.682657,12.3717472 158.571956,11.7026022 158.350554,10.9219331 C157.575646,8.46840149 157.243542,7.79925651 155.915129,7.01858736 C154.254613,6.01486989 152.151292,5.56877323 149.383764,5.56877323 C143.516605,5.56877323 139.531365,9.3605948 139.531365,15.1598513 C139.531365,19.3977695 142.520295,23.3011152 149.383764,28.0966543 L149.383764,28.0966543 L154.365314,31.5539033 C160.343173,35.6802974 162.667897,39.5836431 163,45.8289963 C163,56.3122677 156.247232,62 144.070111,62 C141.634686,62 140.195572,61.7769517 137.317343,61.2193309 L137.317343,61.2193309 L135.214022,60.7732342 C134.549815,60.66171 134.439114,60.3271375 134.328413,59.2118959 L134.328413,59.2118959 L133.774908,55.0855019 C133.664207,54.3048327 133.332103,52.5204461 133.332103,52.5204461 C133.221402,51.6282528 133,50.401487 133,49.6208178 C133,48.7286245 133.442804,48.5055762 133.885609,48.5055762 C134.660517,48.5055762 134.881919,48.9516729 134.99262,49.6208178 C135.546125,51.6282528 136.210332,53.0780669 137.206642,54.4163569 C139.088561,56.9814126 142.409594,58.2081784 147.059041,58.2081784 C153.258303,58.2081784 157.797048,53.7472119 157.797048,47.6133829 C157.797048,45.7174721 157.243542,43.598513 156.579336,42.3717472 C155.583026,40.8104089 152.926199,38.133829 150.712177,36.5724907 L150.712177,36.5724907 L145.95203,33.2267658 C141.745387,30.3271375 139.420664,28.2081784 137.760148,25.9776952 C135.98893,23.7472119 135.103321,20.8475836 135.103321,17.3903346 C135.103321,8.02230483 141.191882,2 150.601476,2 Z M331.802706,2 C332.917903,2 333.810061,2.44526902 334.5907,3.4471243 L334.5907,3.4471243 L337.824773,7.56586271 C341.393405,12.2411874 347.415473,19.8107607 355.333376,29.3840445 C361.132403,36.3970315 365.035595,41.2949907 367.935109,44.9684601 L367.935109,44.9684601 L371.169182,49.0871985 C371.280702,49.0871985 371.392222,49.1985158 371.392222,49.1985158 C371.392222,49.0871985 371.503742,48.9758813 371.503742,48.7532468 C371.615261,48.1966605 371.726781,46.9721707 371.726781,45.3024119 L371.726781,45.3024119 L372.17286,10.3487941 L372.06134,8.567718 C371.949821,6.34137291 370.723103,5.00556586 368.269668,4.6716141 L368.269668,4.6716141 L366.708392,4.44897959 C365.816234,4.22634508 364.924075,4.00371058 364.924075,3.33580705 C364.924075,2.66790353 365.481674,2.22263451 366.373832,2.22263451 C366.708392,2.22263451 367.71207,2.33395176 367.71207,2.33395176 L367.71207,2.33395176 L379.979244,2.33395176 C380.648362,2.33395176 381.094441,2.77922078 380.982921,3.55844156 C380.982921,4.22634508 380.536842,4.44897959 380.090763,4.6716141 C380.090763,4.6716141 377.525809,5.45083488 376.85669,5.78478664 C376.187572,6.1187384 375.853012,6.78664193 375.741493,8.23376623 L375.741493,8.23376623 L375.518453,13.7996289 C375.518453,14.4675325 374.960854,36.619666 374.960854,37.5102041 L374.960854,37.5102041 L374.960194,60.1359415 C374.953265,61.3504038 374.873578,62 373.957176,62 C373.176538,62 372.730459,61.554731 371.726781,59.8849722 C371.615261,59.5510204 371.280702,59.1057514 370.946143,58.6604824 C370.723103,58.4378479 370.500064,58.1038961 370.277024,57.7699443 C369.496386,56.5454545 368.827267,55.6549165 368.381188,55.0983302 C368.158149,54.8756957 367.935109,54.6530612 367.823589,54.4304267 L367.823589,54.4304267 L364.589516,50.2003711 L350.314986,33.2801484 C349.899461,32.7616845 347.23412,29.4420949 344.50482,26.0431159 L344.02296,25.4430259 C341.052882,21.7442217 338.159332,18.1410019 338.159332,18.1410019 C338.00726,17.9284871 337.805418,17.6745734 337.592265,17.4176488 L337.376767,17.1611424 C336.871786,16.5669207 336.375016,16.025974 336.375016,16.025974 C336.151976,15.6920223 335.928937,15.6920223 335.928937,15.6920223 L335.887335,15.6924571 C335.79128,15.6955009 335.705897,15.7198516 335.705897,15.9146568 C335.482858,16.471243 335.482858,17.5844156 335.482858,19.2541744 L335.482858,50.0890538 C335.482858,50.3213681 335.49635,50.7556948 335.513948,51.2233974 L335.534983,51.7547504 C335.564021,52.4582806 335.594378,53.0946197 335.594378,53.0946197 C335.594378,56.1001855 337.044134,58.1038961 339.27453,58.4378479 L339.27453,58.4378479 L341.281886,58.7717996 C341.951004,58.8831169 342.397083,59.3283859 342.397083,59.8849722 C342.397083,60.6641929 341.727965,60.7755102 341.058846,60.7755102 L341.058846,60.7755102 L332.917903,60.4415584 C332.694864,60.4415584 327.007356,60.5528757 326.226717,60.5528757 C325.446079,60.5528757 325.11152,60.1076067 325.11152,59.6623377 C325.11152,58.8831169 325.892158,58.5491651 326.449757,58.4378479 L326.449757,58.4378479 L328.122553,58.1038961 C329.014711,57.9925788 330.018389,57.1020408 330.464468,56.1001855 C330.799028,55.432282 331.022067,54.541744 331.133587,53.6512059 C331.356627,51.8701299 331.356627,47.974026 331.468146,43.8552876 L331.468146,43.8552876 L331.468806,43.6883473 C331.48979,42.2366991 332.004101,14.1937276 332.025085,12.7420794 L332.025745,12.6864564 C332.025745,10.4601113 331.579666,9.45825603 331.133587,9.01298701 C328.680152,6.23005566 328.011034,5.56215213 327.007356,4.78293135 C326.672796,4.56029685 326.449757,4.33766234 326.226717,4.22634508 C325.446079,3.66975881 325,3.33580705 325,2.89053803 C325,2.33395176 325.557599,2 326.003678,2 L326.003678,2 Z M413.712498,1 C416.281624,1 418.85075,1.22099448 420.973071,1.66298343 C424.547507,2.32596685 426.78153,3.09944751 431.026172,5.19889503 L431.026172,5.19889503 L432.366586,5.86187845 C433.595298,6.41436464 433.706999,6.85635359 433.706999,8.0718232 C433.706999,10.6132597 433.8187,13.0441989 433.930401,15.3646409 L433.930401,15.3646409 L434.042102,16.6906077 C434.133494,17.3234555 434.150111,17.8083649 434.153132,18.0848156 L434.153804,18.2375691 C434.153804,19.0110497 434.042102,19.3425414 433.036792,19.3425414 C432.143183,19.3425414 431.919781,18.7900552 431.80808,18.0165746 C431.696379,17.3535912 431.584678,16.9116022 431.249574,16.0276243 C430.020862,12.6022099 429.462356,11.4972376 427.78684,10.0607735 C426.669828,8.9558011 425.106013,8.0718232 423.430496,7.1878453 C419.632658,5.4198895 417.063532,4.86740331 412.93059,4.86740331 C398.96795,4.86740331 390.92547,13.8176796 390.92547,29.3977901 C390.92547,45.3093923 401.425375,57.2430939 415.388015,57.2430939 C422.201784,57.2430939 427.116633,55.3646409 427.116633,52.8232044 L427.116633,52.8232044 L427.116633,45.4198895 C427.116633,42.9889503 426.669828,41.7734807 424.324105,41.441989 L424.324105,41.441989 L421.643278,41.1104972 C420.973071,41 420.526267,40.558011 420.526267,40.0055249 C420.526267,39.2320442 421.084772,38.7900552 421.978381,38.7900552 L421.978381,38.7900552 L422.221443,38.7909392 C422.675396,38.7944751 423.586877,38.8121547 424.212404,38.9005525 C425.106013,39.0110497 427.78684,39.121547 430.579368,39.121547 L430.762022,39.1210449 C432.958791,39.10944 437.396239,38.9005525 437.504837,38.9005525 C438.510147,38.9005525 439.180354,39.3425414 438.956952,39.7845304 C438.956952,40.7790055 438.286745,41.1104972 437.169734,41.2209945 C434.488907,41.441989 433.371896,43.320442 433.371896,47.4088398 L433.371896,47.4088398 L433.371896,51.6077348 C433.371896,52.160221 433.483597,53.3756906 433.483597,54.1491713 L433.483597,54.1491713 L433.483597,55.0331492 C433.483597,55.8066298 433.036792,56.1381215 432.254885,56.4696133 L432.254885,56.4696133 L429.685759,57.6850829 C428.457046,58.2375691 426.893231,58.7900552 425.106013,59.3425414 C420.86137,60.6685083 418.515647,61 415.052912,61 C406.787029,61 401.313674,59.6740331 396.398824,56.4696133 C388.356344,51.1657459 384,42.3259669 384,31.718232 C384,13.9281768 396.510526,1 413.712498,1 Z M300.527273,2 C301.181818,2 302.054545,2.1121673 302.927273,2.1121673 C303.8,2.2243346 304.781818,2.2243346 305.654545,2.2243346 L305.654545,2.2243346 L309.749112,2.22400758 C312.329128,2.22204547 314.038961,2.2083107 315.909091,2.1121673 C316.454545,2.1121673 316.890909,2.2243346 316.890909,3.0095057 C316.890909,3.90684411 315.909091,4.24334601 315.145455,4.35551331 C313.618182,4.69201521 312.636364,5.36501901 311.981818,6.15019011 C311.654545,6.59885932 311.436364,7.15969582 311.218182,7.94486692 C310.890909,9.73954373 310.672727,15.0114068 310.672727,21.404943 L310.672727,21.404943 L310.672727,41.0342205 L310.890909,51.4657795 C310.890909,55.7281369 311.109091,56.7376426 312.2,57.634981 C312.745455,58.1958175 313.945455,58.5323194 315.472727,58.8688213 C316.454545,59.0931559 317,59.4296578 317,59.9904943 C317,60.5513308 316.563636,61 316.018182,61 L316.018182,61 L313.945455,60.8878327 C312.2,60.7756654 309.8,60.6634981 306.745455,60.6634981 C304.563636,60.6634981 302.818182,60.7756654 301.618182,60.8878327 L301.618182,60.8878327 L299.981818,61 C299.436364,61 299,60.5513308 299,59.9904943 C299,59.2053232 299.545455,58.8688213 300.854545,58.5323194 C302.272727,58.0836502 303.254545,57.1863118 303.8,56.0646388 C303.839161,55.9841084 303.876313,55.905053 303.911575,55.8259446 L303.963065,55.7070513 C303.996466,55.627508 304.028035,55.5471478 304.057891,55.4644428 L304.101403,55.3384359 C304.566218,53.9288141 304.58042,51.6728576 304.672727,41.7072243 L304.672727,41.7072243 L304.672727,41.4828897 L304.781818,11.7585551 C304.781818,10.4125475 304.672727,9.17870722 304.563636,8.05703422 C304.345455,6.15019011 303.472727,4.80418251 302.272727,4.46768061 C302.07177,4.42635581 301.707933,4.35458117 301.328508,4.28040259 L301.002905,4.21688636 C300.465324,4.11222523 299.981818,4.01901141 299.981818,4.01901141 C299.436364,3.90684411 299.109091,3.57034221 299.109091,3.121673 C299.109091,2.1121673 299.872727,2 300.527273,2 Z M168.159028,2.00062774 C168.708137,2.00788853 173.101891,2.077031 177.812866,2.15029891 L178.622911,2.16288876 C184.035152,2.24694682 189.598449,2.33208255 190.047377,2.33208255 L190.047377,2.33208255 L218.752115,2.22138837 L220.192893,2.11069418 C221.079526,2.11069418 221.301184,2.6641651 221.301184,3.10694184 C221.301184,3.99249531 220.303723,4.32457786 219.41709,4.54596623 C218.08714,4.87804878 217.643824,5.4315197 217.643824,6.87054409 C217.643824,7.86679174 218.08714,9.41651032 219.084602,11.9624765 L219.084602,11.9624765 L234.822335,51.1482176 C234.933164,51.369606 235.043993,51.369606 235.043993,51.369606 C235.154822,51.369606 235.265651,51.2589118 235.376481,51.0375235 L235.376481,51.0375235 L236.373942,49.0450281 C237.703892,46.6097561 239.366328,42.8461538 241.693739,37.3114447 C244.686125,30.0056285 246.459391,25.7992495 247.567682,23.4746717 L247.567682,23.4746717 L248.232657,22.1463415 C248.454315,21.7035647 248.454315,21.5928705 248.454315,21.5928705 C248.454315,21.4821764 248.232657,20.9287054 248.121827,20.4859287 L248.121827,20.4859287 L242.80203,7.53470919 C242.137056,5.87429644 241.028765,4.87804878 239.698816,4.65666041 L239.698816,4.65666041 L237.593063,4.21388368 C236.70643,4.10318949 236.263113,3.88180113 236.263113,3.10694184 C236.263113,2.6641651 236.595601,2.22138837 237.149746,2.22138837 L237.149746,2.22138837 L239.595095,2.22171109 C240.126299,2.22364743 241.076263,2.23720182 242.026227,2.33208255 C243.356176,2.33208255 244.907783,2.44277674 245.572758,2.44277674 L245.572758,2.44277674 L245.84745,2.44204706 C246.362415,2.43888514 247.352951,2.42202158 248.343486,2.33208255 C249.673435,2.33208255 251.114213,2.22138837 251.446701,2.22138837 C252.000846,2.22138837 253.330795,2.22138837 253.330795,3.21763602 C253.330795,3.88180113 252.77665,4.32457786 251.779188,4.43527205 C250.116751,4.65666041 249.673435,5.09943715 249.673435,6.64915572 C249.673435,7.09193246 249.673435,7.53470919 249.784264,7.86679174 L249.784264,7.86679174 L251.55753,13.0694184 L266.630288,50.5947467 C266.851946,50.9268293 266.962775,51.0375235 267.073604,51.0375235 C267.073604,51.0375235 267.184433,50.9268293 267.295262,50.7054409 L267.295262,50.7054409 L283.69797,13.8442777 C285.360406,10.0806754 286.025381,8.1988743 286.025381,7.09193246 C286.025381,5.76360225 285.249577,4.98874296 284.030457,4.7673546 L284.030457,4.7673546 L281.481387,4.32457786 C280.816413,4.21388368 280.373096,3.77110694 280.373096,3.21763602 C280.373096,2.99624765 280.483926,2.22138837 281.813875,2.22138837 C282.257191,2.22138837 282.922166,2.33208255 282.922166,2.33208255 C284.252115,2.44277674 285.471235,2.44277674 286.690355,2.44277674 L287.798646,2.44277674 C290.362172,2.35133371 292.320641,2.33543058 293.549098,2.33266482 L294.31861,2.3322278 C294.894779,2.33484224 295.895004,2.38451664 296,3.32833021 C296,3.77110694 295.667513,4.43527205 294.005076,4.54596623 C293.229272,4.65666041 292.564298,4.87804878 292.120981,5.09943715 C290.680203,5.76360225 290.015228,7.42401501 289.350254,8.97373358 L289.350254,8.97373358 L267.295262,59.5609756 C267.073604,60.1144465 266.851946,60.5572233 266.741117,60.6679174 C266.630288,60.8893058 266.2978,61 266.076142,61 C265.854484,61 265.411168,60.7786116 265.300338,60.5572233 L265.300338,60.5572233 L262.529611,54.1369606 C261.532149,52.0337711 259.315567,46.7204503 255.879865,38.1969981 C255.104061,36.4258912 254.328257,34.6547842 253.663283,32.9943715 C252.998308,31.4446529 252.333333,29.8949343 251.779188,28.4559099 L251.779188,28.4559099 L250.781726,25.9099437 C250.670897,25.5778612 250.449239,25.467167 250.338409,25.467167 C250.338409,25.467167 250.116751,25.5778612 249.895093,26.0206379 L249.895093,26.0206379 L235.265651,59.6716698 C235.043993,60.0037523 235.043993,60.2251407 234.933164,60.3358349 C234.933164,60.4465291 234.933164,60.5572233 234.822335,60.6679174 C234.600677,60.8893058 234.26819,61 234.046531,61 C233.381557,61 233.159898,60.4465291 232.93824,59.6716698 L232.93824,59.6716698 L232.93824,59.5609756 C232.93824,59.5609756 232.827411,59.1181989 232.273266,57.9005629 L232.273266,57.9005629 L222.076988,32.9943715 L214.873096,16.1688555 C212.878173,11.630394 212.545685,10.8555347 211.326565,8.53095685 C210.381601,6.64332971 207.14883,6.54398092 203.23024,6.53875203 L201.684433,6.53846154 C199.024535,6.53846154 196.586294,6.64915572 195.145516,6.75984991 L195.145516,6.75984991 L193.593909,6.87054409 C193.150592,6.98123827 192.928934,7.20262664 192.928934,7.42401501 C192.928934,7.42401501 192.818105,8.8630394 192.818105,9.30581614 L192.818105,9.30581614 L192.818105,53.2514071 C192.818105,55.7973734 194.037225,57.0150094 197.362098,57.6791745 L197.362098,57.6791745 L198.913706,58.011257 C199.024535,58.1219512 199.135364,58.1219512 199.246193,58.1219512 C199.689509,58.1219512 200.354484,58.3433396 200.354484,59.1181989 C200.354484,59.8930582 199.911168,60.2251407 199.135364,60.2251407 L199.135364,60.2251407 L197.694585,60.2251407 L181.291878,60.1144465 L181.291878,60.1144465 L179.740271,60.1144465 C179.186125,60.1144465 178.853638,59.6716698 178.853638,59.0075047 C178.853638,58.7861163 178.964467,58.4540338 179.407783,58.2326454 C179.629442,58.011257 180.516074,57.9005629 180.737733,57.9005629 L180.737733,57.9005629 L183.286802,57.3470919 C184.505922,57.1257036 185.614213,56.2401501 185.946701,55.2439024 C186.369866,54.1872761 186.490084,51.5168933 186.500138,45.8849005 L186.500846,45.0600375 L186.611675,8.53095685 L186.611675,8.53095685 L186.611325,8.26153723 C186.603794,6.4085257 186.434349,6.20637899 182.621827,6.20637899 L182.133358,6.20653083 C180.808882,6.20774558 179.309269,6.21867834 177.634518,6.31707317 C173.977157,6.42776735 171.982234,6.75984991 170.541455,7.31332083 C169.100677,7.86679174 167.770728,9.41651032 166.773266,11.7410882 C166.551607,12.2945591 166.329949,12.5159475 165.886633,12.5159475 C165.110829,12.5159475 165,12.0731707 165,11.8517824 C165,11.630394 165,11.4090056 165.110829,11.2983114 L165.110829,11.2983114 L165.110829,11.1876173 L165.775804,8.97373358 L166.440778,5.76360225 L166.994924,3.21763602 C167.216582,2.22138837 167.327411,2 168.103215,2 L168.103215,2 Z M15.2761062,2 C16.1681416,2 16.3911504,2.55347092 16.3911504,2.99624765 C16.3911504,3.88180113 15.3876106,4.21388368 14.4955752,4.43527205 C13.1575221,4.7673546 12.7115044,5.32082552 12.7115044,6.75984991 C12.7115044,7.75609756 13.1575221,9.30581614 14.1610619,11.8517824 L14.1610619,11.8517824 L30.1061947,50.9268293 C30.2176991,51.1482176 30.3292035,51.1482176 30.3292035,51.1482176 C30.440708,51.1482176 30.5522124,51.0375235 30.6637168,50.8161351 L30.6637168,50.8161351 L31.6672566,48.8236398 C33.0053097,46.3883677 34.6778761,42.6247655 37.019469,37.0900563 C40.0300885,29.7842402 41.8141593,25.6885553 42.9292035,23.2532833 L42.9292035,23.2532833 L43.5982301,21.9249531 C43.8212389,21.4821764 43.8212389,21.3714822 43.8212389,21.3714822 C43.8212389,21.260788 43.5982301,20.7073171 43.4867257,20.2645403 L43.4867257,20.2645403 L38.1345133,7.42401501 C37.4654867,5.76360225 36.3504425,4.7673546 35.0123894,4.54596623 L35.0123894,4.54596623 L32.8938053,4.10318949 C32.0017699,3.99249531 31.5557522,3.77110694 31.5557522,2.99624765 C31.5557522,2.55347092 31.8902655,2.11069418 32.4477876,2.11069418 L32.4477876,2.11069418 L34.7834477,2.11073452 C35.2831858,2.11125895 36.3185841,2.11860091 37.3539823,2.22138837 C38.6920354,2.22138837 40.2530973,2.33208255 40.9221239,2.33208255 C41.2566372,2.33208255 42.4831858,2.33208255 43.7097345,2.22138837 C44.9362832,2.22138837 46.3858407,2.11069418 46.720354,2.11069418 C47.2778761,2.11069418 48.6159292,2.11069418 48.6159292,3.10694184 C48.6159292,3.77110694 48.0584071,4.21388368 47.0548673,4.32457786 C45.3823009,4.54596623 44.9362832,4.98874296 44.9362832,6.53846154 C44.9362832,6.98123827 44.9362832,7.42401501 45.0477876,7.75609756 L45.0477876,7.75609756 L46.8318584,12.9587242 L61.9964602,50.4840525 C62.219469,50.8161351 62.3309735,50.9268293 62.4424779,50.9268293 C62.4424779,50.9268293 62.5539823,50.8161351 62.6654867,50.5947467 L62.6654867,50.5947467 L79.0566372,13.7335835 C80.7292035,9.96998124 81.3982301,8.08818011 81.3982301,6.98123827 C81.3982301,5.65290807 80.6176991,4.87804878 79.3911504,4.65666041 L79.3911504,4.65666041 L76.8265487,4.21388368 C76.1575221,4.10318949 75.7115044,3.66041276 75.7115044,3.10694184 C75.7115044,2.88555347 75.8230088,2.11069418 77.1610619,2.11069418 C77.6070796,2.11069418 78.2761062,2.22138837 78.2761062,2.22138837 C79.6141593,2.33208255 80.840708,2.33208255 82.0672566,2.33208255 L82.0672566,2.33208255 L83.1823009,2.33208255 C83.6517932,2.31266252 84.4644817,2.30346356 85.5101822,2.30149705 L86.511251,2.30159926 C91.6838526,2.3108568 100.72762,2.44277674 104.256637,2.44277674 L105.706195,2.44277674 C119.344301,2.17378987 122.081857,2.12268236 122.689051,2.11297194 L122.748196,2.11205439 C122.753892,2.11196938 122.759313,2.11188968 122.764476,2.11181496 L122.824577,2.11102627 C122.827565,2.11099306 122.830377,2.11096317 122.83303,2.11093627 L122.877876,2.11069418 C123.546903,2.11069418 124.104425,2.6641651 124.104425,3.54971857 L124.104425,3.54971857 L124.104425,4.32457786 C123.99292,4.7673546 123.99292,5.32082552 123.99292,5.87429644 C123.99292,7.09193246 124.104425,8.53095685 124.327434,10.3020638 L124.327434,10.3020638 L124.327434,10.5234522 C124.438938,10.8555347 124.438938,11.1876173 124.438938,11.4090056 C124.438938,12.7373358 123.769912,12.84803 123.435398,12.84803 C122.877876,12.84803 122.654867,12.4052533 122.431858,11.8517824 L122.431858,11.8517824 L121.985841,10.412758 C120.870796,6.75984991 119.19823,5.76360225 113.957522,5.76360225 L113.957522,5.76360225 L104.814159,5.76360225 L101.915044,5.65290807 C100.8,5.76360225 100.8,5.87429644 100.8,6.31707317 L100.8,6.31707317 L100.688496,8.42026266 L100.688496,27.7917448 L100.688496,27.7917448 L112.061947,27.7917448 C116.299115,27.7917448 116.856637,27.1275797 117.302655,24.9136961 C117.525664,23.9174484 117.748673,23.1425891 118.529204,23.1425891 C118.975221,23.1425891 119.421239,23.4746717 119.421239,24.249531 L119.421239,24.249531 L119.19823,26.7954972 L119.19823,30.7804878 L119.644248,35.8724203 L119.644248,36.9793621 C119.644248,37.532833 119.309735,37.8649156 118.863717,37.8649156 C118.083186,37.8649156 117.860177,37.2007505 117.637168,35.6510319 C117.19115,32.9943715 115.964602,31.9981238 113.288496,31.8874296 L113.288496,31.8874296 L113.151787,31.8871775 C113.133712,31.887127 113.113875,31.8870665 113.092294,31.8869939 L112.942034,31.8863968 C112.087584,31.8825235 109.696879,31.8641256 106.263717,31.7767355 C105.037168,31.7767355 101.357522,31.9981238 101.357522,31.9981238 L101.357522,31.9981238 L100.911504,31.9981238 L100.911504,31.9981238 L100.911504,32.2195122 L101.246018,49.7091932 C101.357522,55.1332083 101.580531,56.3508443 104.925664,56.4615385 C107.984071,56.6512999 108.666751,56.6784087 109.010042,56.6822814 L109.162832,56.6829268 C113.288496,56.6829268 117.971681,56.2401501 119.19823,55.7973734 C120.313274,55.3545966 121.985841,54.0262664 122.766372,53.0300188 C123.323894,52.2551595 123.658407,51.369606 124.104425,50.0412758 C124.215929,49.4878049 124.438938,49.1557223 124.99646,49.1557223 C125.665487,49.1557223 125.888496,49.4878049 126,50.0412758 C126,50.7054409 125.553982,52.8086304 125.107965,54.358349 L125.107965,54.358349 L124.215929,57.4577861 C123.769912,59.4502814 123.435398,60.0037523 121.874336,60.0037523 L121.874336,60.0037523 L118.412193,60.0033081 C116.384005,59.9957046 113.115044,59.8930582 108.60531,59.8930582 L107.616721,59.8935622 C99.6131059,59.9017401 93.3532535,60.0080933 91.2106195,60.1144465 L91.2106195,60.1144465 L89.8725664,60.2251407 C89.3150442,60.2251407 88.980531,59.8930582 88.980531,59.4502814 C88.980531,58.6754221 89.5380531,58.4540338 90.8761062,58.2326454 C91.6566372,58.1219512 92.9946903,57.4577861 93.6637168,57.0150094 C94.4442478,56.4615385 94.6672566,55.6866792 94.7787611,53.5834897 L94.7787611,53.5834897 L94.7784167,25.9659429 C94.7715672,24.9885673 94.6636597,11.3804394 94.5557522,10.5234522 L94.5557522,10.5234522 L94.5557522,9.74859287 C94.4442478,7.53470919 94.3327434,5.98499062 93.6637168,5.21013133 C92.1026549,3.66041276 89.3150442,3.88180113 87.5309735,5.09943715 C86.0814159,5.87429644 85.5238938,6.98123827 84.9663717,8.42026266 L84.9663717,8.42026266 L84.7433628,8.97373358 L62.5539823,59.5609756 C62.3309735,60.1144465 62.1079646,60.5572233 61.9964602,60.6679174 C61.7734513,60.8893058 61.5504425,61 61.2159292,61 C60.9929204,61 60.5469027,60.7786116 60.4353982,60.5572233 L60.4353982,60.5572233 L57.6477876,54.1369606 C56.6442478,52.0337711 54.4141593,46.7204503 50.9575221,38.1969981 C50.1769912,36.4258912 49.3964602,34.6547842 48.7274336,32.9943715 C48.0584071,31.4446529 47.3893805,29.8949343 46.8318584,28.4559099 L46.8318584,28.4559099 L45.8283186,25.9099437 C45.7168142,25.5778612 45.4938053,25.467167 45.3823009,25.467167 C45.3823009,25.467167 45.159292,25.5778612 44.9362832,26.0206379 L44.9362832,26.0206379 L30.2176991,59.6716698 C29.9946903,60.0037523 29.9946903,60.2251407 29.8831858,60.3358349 C29.8831858,60.4465291 29.8831858,60.5572233 29.7716814,60.6679174 C29.660177,60.8893058 29.3256637,61 28.9911504,61 C28.3221239,61 28.099115,60.4465291 27.8761062,59.6716698 L27.8761062,59.6716698 L27.8760504,59.5434167 C27.8749912,59.4253752 27.8538053,59.1624765 27.4300885,57.9005629 L27.4300885,57.9005629 L17.1716814,32.9943715 L9.92389381,16.1688555 C7.69380531,10.9662289 6.35575221,8.42026266 5.68672566,7.31332083 C4.90619469,6.0956848 3.56814159,4.98874296 2.89911504,4.87804878 L2.89911504,4.87804878 L1.56106195,4.65666041 C0.780530973,4.43527205 0,4.21388368 0,3.32833021 C0,2.6641651 0.446017699,2.22138837 1.22654867,2.11069418 L1.22654867,2.11069418 L13.8265487,2.11069418 Z"/>
  </g>
</svg>
