<?xml version="1.0" encoding="UTF-8"?>
<svg width="512px" height="512px" viewBox="0 0 512 512" version="1.1" xmlns="http://www.w3.org/2000/svg" xmlns:xlink="http://www.w3.org/1999/xlink">
    <!-- Generator: Sketch 59.1 (86144) - https://sketch.com -->
    <title>WW_AppIcon_512@2x</title>
    <desc>Created with Sketch.</desc>
    <g id="WW_AppIcon_512" stroke="none" stroke-width="1" fill="none" fill-rule="evenodd">
        <g id="Logo/Westwing/App">
            <rect id="Rectangle" fill="#539E8C" x="0" y="0" width="512" height="512"></rect>
            <g id="Icon/W/White" transform="translate(-42.666667, -42.666667)" fill="#FFFFFF">
                <path d="M477.6,201.831681 C477.6,200.830675 476.674812,199 474.994506,199 C473.314199,199 453.049861,199.568626 440.917902,199.847214 L436.68183,199.847214 C430.747512,199.847214 425.656592,199.568626 421.710557,199.282405 C421.710557,199.282405 419.168914,199 417.463036,199 C413.791773,199 412.66597,200.41584 412.66597,201.831681 C412.66597,203.236072 414.074178,204.651913 416.333416,204.94195 L426.225218,206.632563 C431.594726,207.472145 434.697363,211.15104 434.697363,216.524365 C434.697363,221.317614 431.877131,229.232582 425.656592,243.35664 L362.088791,387.165577 C361.523981,388.581417 360.676767,389.150043 360.115773,389.150043 C358.982338,389.150043 358.421344,388.295196 357.570314,386.600767 L298.803394,240.528776 L292.021862,220.191811 C291.735641,218.775971 291.453236,217.081542 291.453236,215.108524 C291.453236,208.609397 293.716291,206.346342 300.776412,205.499127 C304.172902,205.220539 305.867331,203.804698 305.867331,201.831681 C305.867331,199 301.631259,199 299.650609,199 C296.830377,199 279.596049,200.137252 277.054406,200.137252 C271.95967,200.137252 256.427404,199 252.752325,199 L243.986327,199 C242.581935,199 241.444683,200.137252 241.444683,201.541643 C241.444683,203.52611 242.295714,204.365692 245.680756,204.94195 L253.878128,206.632563 C259.526225,207.762182 264.056151,211.71585 266.876383,218.218794 L287.78579,268.498303 C287.78579,268.498303 289.193998,272.177198 289.193998,273.303001 C289.193998,273.593039 288.915409,274.436437 288.346783,275.852277 L285.80514,281.214153 C281.000441,291.384543 273.375511,309.466085 262.915083,334.901601 C254.442938,355.242382 247.669038,370.499875 242.295714,380.666449 L238.345862,388.295196 C237.777237,389.428632 236.930022,389.989625 236.082808,389.989625 C235.235593,389.989625 234.670783,389.428632 234.102157,388.295196 L172.228785,236.300336 C167.992713,225.553687 166.576872,219.913223 166.576872,216.234327 C166.576872,210.021421 168.561339,207.472145 174.201803,206.346342 C178.727913,205.220539 180.987151,203.804698 180.987151,201.831681 C180.987151,199.847214 179.853716,199 177.598293,199 L171.950197,199.568626 L123.353668,199.568626 C120.812024,199.568626 119.4,200.694429 119.4,202.671263 C119.4,204.94195 120.812024,206.060121 124.761876,206.632563 L129.852795,207.472145 C132.955432,208.040771 138.038719,212.555432 141.148988,217.363947 C144.537846,223.023492 149.907354,234.029648 157.536101,252.11119 L185.505629,317.655825 L225.05757,414.570294 C226.751999,418.813999 227.599214,421.069422 227.599214,421.34801 C228.446428,424.45828 229.305092,425.591715 230.999521,425.591715 C231.846735,425.591715 232.69395,425.313127 232.976354,424.744501 C233.541164,423.32866 233.823569,423.32866 234.670783,421.069422 L291.735641,289.976335 C292.594304,288.27809 293.716291,287.159919 294.567322,287.159919 C295.41072,287.159919 296.540339,287.995685 297.108965,289.411526 L301.066449,299.299511 C305.867331,311.160514 311.523061,323.601592 316.884936,336.878435 C330.451817,369.931249 338.923962,390.554435 342.591409,399.038029 L353.326608,423.897286 C353.616646,424.45828 354.742449,425.023089 355.589663,425.023089 C356.436878,425.023089 357.284092,424.744501 357.570314,424.179691 C357.852718,423.897286 358.699933,422.485262 359.547147,420.218391 L445.432563,223.580669 C448.260428,217.081542 449.825103,211.84942 456.736389,208.040771 C460.840836,205.781401 468.643004,205.499127 472.50908,205.499127 C476.375157,205.499127 477.6,202.832687 477.6,201.831681 Z" id="Fill-241-Copy-3"></path>
            </g>
        </g>
    </g>
</svg>